# xmcd
#
# Track frame offsets:
#	150
#	15907
#	30472
#	42639
#	58590
#	71126
#	86016
#	101137
#	118466
#	127385
#	141602
#	157922
#	173324
#	188146
#
# Disc length: 2698 seconds
#
# Revision: 2
# Processed by: cddbd v1.4b42PL0 Copyright (c) Steve Scherf et al.
# Submitted via: EZCDDA 4.3.2
#
DISCID=c90a880e
DTITLE=Coyote Dax - Me Vale
DYEAR=1900
DGENRE=
TTITLE0=No rompas mi corazón
TTITLE1=Arriba y abajo
TTITLE2=Chatahochie
TTITLE3=Johny Boy
TTITLE4=Corazón vanidoso
TTITLE5=Me vale (cotton eyed joe)
TTITLE6=Jambalaya (on the bayou)
TTITLE7=Carretera 54
TTITLE8=Ranchero
TTITLE9=Se murió de amor
TTITLE10=Rock on
TTITLE11=Payaso de rodeo
TTITLE12=Chiquilla Escandalosa
TTITLE13="Hey Baby, Que paso"
EXTD=
EXTT0=
EXTT1=
EXTT2=
EXTT3=
EXTT4=
EXTT5=
EXTT6=
EXTT7=
EXTT8=
EXTT9=
EXTT10=
EXTT11=
EXTT12=
EXTT13=
PLAYORDER=
